<svg width="55" height="55" viewBox="0 0 55 55" fill="none" xmlns="http://www.w3.org/2000/svg">
<rect width="55" height="55" fill="white"/>
<path d="M11.574 19.3514L13.8329 16.1892L15.8526 17.7027L14.7365 19.2703L24.7554 18.973L24.8351 21.5135L12.8762 21.8649L9.79344 26.1351L14.577 25.7297L14.6302 22.4324L17.1283 22.4595L17.0751 25.5135L22.6825 25L24.0379 26.2432V36.5135L22.5762 37.8108L18.5102 37.0541L18.962 34.5676L21.5398 35.027V27.6757L17.0485 28.0811L16.9157 38.8378L14.4441 38.8108L14.5504 28.2973L9.74029 28.7027L10.1123 36.4865L7.61426 36.5946L7.26878 29.6486L6.01973 31.4054L4 29.9189L9.71372 21.9459L5.4085 22.0541L5.32877 19.5135L11.574 19.3514Z" fill="#135AF5"/>
<path d="M31.3972 20.973L30.4139 18.2973L32.7791 17.3784L34.0016 20.8378L35.5961 20.7568L38.5726 16L40.6986 17.3514L38.6789 20.5946L42.9841 20.3784L45.2164 16.6757L47.3425 18L46.0137 20.2162L48.1397 20.0811L48.2194 22.6216L37.0312 23.2162L35.8619 25.1081L49.4685 24.8108L49.4951 27.3514L46.7844 27.4054L50 31.8378L47.9537 33.3784L43.7282 27.4865L34.2673 27.6757L29.8292 34.7838L27.7298 33.4054L31.2643 27.7297L28.1284 27.7838L28.0753 25.2703L32.8588 25.1622L33.975 23.3784L29.4838 23.5946L29.3509 21.0811L31.3972 20.973ZM33.5232 29.9189L34.7989 28.7027L43.4359 28.9459L44.6318 30.1351L44.8444 33.4595L43.7548 34.8108L39.9811 35.3513L39.6622 32.8378L42.2931 32.4595L42.2134 31.4324L35.9682 31.2703L35.7821 36.3514L47.5019 35.2973L47.7411 37.8378L34.5862 39L33.2043 37.7027L33.5232 29.9189Z" fill="#135AF5"/>
</svg>
