<svg width="26" height="14" viewBox="0 0 26 14" fill="none" xmlns="http://www.w3.org/2000/svg">
<rect width="26" height="14" rx="4" fill="#CD7F32"/>
<path d="M5.05005 3.85986L7.59005 10.9999H9.00005L11.54 3.85986H10.27L8.31005 9.67986H8.28005L6.32005 3.85986H5.05005Z" fill="white"/>
<path d="M12.2918 3.85986V10.9999H13.4618V3.85986H12.2918Z" fill="white"/>
<path d="M14.8602 3.85986V10.9999H16.0302V8.25986H17.8002C19.5402 8.25986 20.4102 7.51986 20.4102 6.04986C20.4102 4.58986 19.5402 3.85986 17.8202 3.85986H14.8602ZM16.0302 4.85986H17.7302C18.2402 4.85986 18.6202 4.94986 18.8602 5.13986C19.1002 5.31986 19.2302 5.61986 19.2302 6.04986C19.2302 6.47986 19.1102 6.78986 18.8702 6.97986C18.6302 7.15986 18.2502 7.25986 17.7302 7.25986H16.0302V4.85986Z" fill="white"/>
</svg>
